{
  "accessors": [
    {
      "bufferView": 2,
      "componentType": 5126,
      "count": 6348,
      "max": [
        0.3270399868488312,
        0.5645700097084045,
        -0.022050000727176666
      ],
      "min": [
        -0.357479989528656,
        -1.0016800165176392,
        -0.0514799989759922
      ],
      "type": "VEC3"
    },
    {
      "bufferView": 2,
      "byteOffset": 76176,
      "componentType": 5126,
      "count": 6348,
      "max": [
        0.10438970476388931,
        0.9999472498893738,
        0.9999677538871765
      ],
      "min": [
        -0.12273992598056793,
        -0.8955883979797363,
        -0.9951844215393066
      ],
      "type": "VEC3"
    },
    {
      "bufferView": 0,
      "componentType": 5125,
      "count": 6753,
      "type": "SCALAR"
    },
    {
      "bufferView": 2,
      "byteOffset": 152352,
      "componentType": 5126,
      "count": 1706,
      "max": [
        0.449319988489151,
        0.8578799962997437,
        -0.09239000082015991
      ],
      "min": [
        -0.4381699860095978,
        -0.794189989566803,
        -0.848609983921051
      ],
      "type": "VEC3"
    },
    {
      "bufferView": 2,
      "byteOffset": 172824,
      "componentType": 5126,
      "count": 1706,
      "max": [
        0.9809897541999817,
        1.0,
        0.9969435930252075
      ],
      "min": [
        -0.9770718216896057,
        -1.0,
        -0.9967253804206848
      ],
      "type": "VEC3"
    },
    {
      "bufferView": 1,
      "componentType": 5126,
      "count": 1706,
      "max": [
        1.0,
        1.0
      ],
      "min": [
        0.0,
        0.0
      ],
      "type": "VEC2"
    },
    {
      "bufferView": 0,
      "byteOffset": 27012,
      "componentType": 5125,
      "count": 3300,
      "type": "SCALAR"
    },
    {
      "bufferView": 2,
      "byteOffset": 193296,
      "componentType": 5126,
      "count": 8394,
      "max": [
        4.740690231323242,
        6.822269916534424,
        0.20000000298023224
      ],
      "min": [
        -5.930689811706543,
        -0.4027499854564667,
        -0.22373999655246735
      ],
      "type": "VEC3"
    },
    {
      "bufferView": 2,
      "byteOffset": 294024,
      "componentType": 5126,
      "count": 8394,
      "max": [
        0.9990499019622803,
        1.0,
        1.0
      ],
      "min": [
        -0.9988012313842773,
        -1.0,
        -1.0
      ],
      "type": "VEC3"
    },
    {
      "bufferView": 1,
      "byteOffset": 13648,
      "componentType": 5126,
      "count": 8394,
      "max": [
        6.522950172424316,
        3.4693899154663086
      ],
      "min": [
        -5.619729995727539,
        -2.6801600456237793
      ],
      "type": "VEC2"
    },
    {
      "bufferView": 0,
      "byteOffset": 40212,
      "componentType": 5125,
      "count": 13890,
      "type": "SCALAR"
    },
    {
      "bufferView": 2,
      "byteOffset": 394752,
      "componentType": 5126,
      "count": 2687,
      "max": [
        4.740690231323242,
        0.6254900097846985,
        0.21425999701023102
      ],
      "min": [
        -5.914159774780273,
        -0.5259000062942505,
        -0.22373999655246735
      ],
      "type": "VEC3"
    },
    {
      "bufferView": 2,
      "byteOffset": 426996,
      "componentType": 5126,
      "count": 2687,
      "max": [
        0.9923688769340515,
        0.9853187799453735,
        0.9989418983459473
      ],
      "min": [
        -0.9889158010482788,
        -0.986054003238678,
        -0.9989551305770874
      ],
      "type": "VEC3"
    },
    {
      "bufferView": 1,
      "byteOffset": 80800,
      "componentType": 5126,
      "count": 2687,
      "max": [
        5.009759902954102,
        3.9665400981903076
      ],
      "min": [
        -3.9955201148986816,
        -0.7757999897003174
      ],
      "type": "VEC2"
    },
    {
      "bufferView": 0,
      "byteOffset": 95772,
      "componentType": 5125,
      "count": 4254,
      "type": "SCALAR"
    },
    {
      "bufferView": 2,
      "byteOffset": 459240,
      "componentType": 5126,
      "count": 3884,
      "max": [
        1.0,
        1.0057200193405151,
        1.0
      ],
      "min": [
        -1.0,
        -1.3509000539779663,
        -1.0
      ],
      "type": "VEC3"
    },
    {
      "bufferView": 2,
      "byteOffset": 505848,
      "componentType": 5126,
      "count": 3884,
      "max": [
        1.0,
        1.0,
        1.0
      ],
      "min": [
        -1.0,
        -1.0,
        -1.0
      ],
      "type": "VEC3"
    },
    {
      "bufferView": 1,
      "byteOffset": 102296,
      "componentType": 5126,
      "count": 3884,
      "max": [
        1.64437997341156,
        1.64437997341156
      ],
      "min": [
        -0.575439989566803,
        -0.5289300084114075
      ],
      "type": "VEC2"
    },
    {
      "bufferView": 0,
      "byteOffset": 112788,
      "componentType": 5125,
      "count": 6228,
      "type": "SCALAR"
    },
    {
      "bufferView": 2,
      "byteOffset": 552456,
      "componentType": 5126,
      "count": 4,
      "max": [
        1.0086300373077393,
        0.5948600172996521,
        0.0
      ],
      "min": [
        -0.8142799735069275,
        -0.5,
        0.0
      ],
      "type": "VEC3"
    },
    {
      "bufferView": 2,
      "byteOffset": 552504,
      "componentType": 5126,
      "count": 4,
      "max": [
        0.0,
        0.0,
        1.0
      ],
      "min": [
        0.0,
        0.0,
        1.0
      ],
      "type": "VEC3"
    },
    {
      "bufferView": 1,
      "byteOffset": 133368,
      "componentType": 5126,
      "count": 4,
      "max": [
        1.0,
        1.0
      ],
      "min": [
        0.0,
        0.0
      ],
      "type": "VEC2"
    },
    {
      "bufferView": 0,
      "byteOffset": 137700,
      "componentType": 5125,
      "count": 6,
      "type": "SCALAR"
    },
    {
      "bufferView": 2,
      "byteOffset": 552552,
      "componentType": 5126,
      "count": 10157,
      "max": [
        1.7594599723815918,
        0.7194600105285645,
        0.0
      ],
      "min": [
        -1.7122199535369873,
        -1.2961100339889526,
        0.0
      ],
      "type": "VEC3"
    },
    {
      "bufferView": 2,
      "byteOffset": 674436,
      "componentType": 5126,
      "count": 10157,
      "max": [
        0.0,
        0.0,
        1.0
      ],
      "min": [
        0.0,
        0.0,
        -1.0
      ],
      "type": "VEC3"
    },
    {
      "bufferView": 0,
      "byteOffset": 137724,
      "componentType": 5125,
      "count": 30327,
      "type": "SCALAR"
    },
    {
      "bufferView": 2,
      "byteOffset": 796320,
      "componentType": 5126,
      "count": 2258,
      "max": [
        0.45972999930381775,
        0.5645999908447266,
        0.0
      ],
      "min": [
        -0.48322001099586487,
        -1.0016800165176392,
        0.0
      ],
      "type": "VEC3"
    },
    {
      "bufferView": 2,
      "byteOffset": 823416,
      "componentType": 5126,
      "count": 2258,
      "max": [
        0.0,
        0.0,
        1.0
      ],
      "min": [
        0.0,
        0.0,
        0.9999999403953552
      ],
      "type": "VEC3"
    },
    {
      "bufferView": 0,
      "byteOffset": 259032,
      "componentType": 5125,
      "count": 6741,
      "type": "SCALAR"
    },
    {
      "bufferView": 2,
      "byteOffset": 850512,
      "componentType": 5126,
      "count": 24,
      "max": [
        0.9993600249290466,
        0.4351600110530853,
        -1.090939998626709
      ],
      "min": [
        -0.8736000061035156,
        -0.5660899877548218,
        -1.7977700233459473
      ],
      "type": "VEC3"
    },
    {
      "bufferView": 2,
      "byteOffset": 850800,
      "componentType": 5126,
      "count": 24,
      "max": [
        0.8036790490150452,
        -0.013079984113574028,
        0.9861869812011719
      ],
      "min": [
        -0.7253588438034058,
        -0.04628023877739906,
        0.5949192643165588
      ],
      "type": "VEC3"
    },
    {
      "bufferView": 1,
      "byteOffset": 133400,
      "componentType": 5126,
      "count": 24,
      "max": [
        1.0,
        1.0
      ],
      "min": [
        0.0,
        0.0
      ],
      "type": "VEC2"
    },
    {
      "bufferView": 0,
      "byteOffset": 285996,
      "componentType": 5125,
      "count": 36,
      "type": "SCALAR"
    }
  ],
  "asset": {
    "extras": {
      "author": "Mike Rowley (https://sketchfab.com/scrumpy26)",
      "license": "CC-BY-4.0 (http://creativecommons.org/licenses/by/4.0/)",
      "source": "https://sketchfab.com/3d-models/old-book-84145cf4a3984ff59867f8abfe9138ad",
      "title": "Old Book"
    },
    "generator": "Sketchfab-12.68.0",
    "version": "2.0"
  },
  "bufferViews": [
    {
      "buffer": 0,
      "byteLength": 286140,
      "name": "floatBufferViews",
      "target": 34963
    },
    {
      "buffer": 0,
      "byteLength": 133592,
      "byteOffset": 286140,
      "byteStride": 8,
      "name": "floatBufferViews",
      "target": 34962
    },
    {
      "buffer": 0,
      "byteLength": 851088,
      "byteOffset": 419732,
      "byteStride": 12,
      "name": "floatBufferViews",
      "target": 34962
    }
  ],
  "buffers": [
    {
      "byteLength": 1270820,
      "uri": "scene.bin"
    }
  ],
  "images": [
    {
      "uri": "textures/material_baseColor.png"
    },
    {
      "uri": "textures/000-Front-Cover-shabby-chic-border-q75-2560x1600_baseColor.png"
    },
    {
      "uri": "textures/Material.002_baseColor.jpeg"
    },
    {
      "uri": "textures/Material_baseColor.png"
    },
    {
      "uri": "textures/Material_metallicRoughness.png"
    },
    {
      "uri": "textures/material_6_baseColor.png"
    }
  ],
  "materials": [
    {
      "alphaMode": "BLEND",
      "doubleSided": true,
      "name": "material",
      "pbrMetallicRoughness": {
        "baseColorFactor": [
          0.8464433773127846,
          0.563388332433982,
          0.005068987238507827,
          1.0
        ],
        "baseColorTexture": {
          "index": 0
        },
        "roughnessFactor": 0.3333333432674408
      }
    },
    {
      "doubleSided": true,
      "name": "Material.003",
      "pbrMetallicRoughness": {
        "baseColorFactor": [
          0.8687567850198055,
          0.8834365490119371,
          0.021788512399950534,
          1.0
        ],
        "metallicFactor": 0.53,
        "roughnessFactor": 0.12
      }
    },
    {
      "alphaMode": "BLEND",
      "doubleSided": true,
      "name": "000-Front-Cover-shabby-chic-border-q75-2560x1600",
      "pbrMetallicRoughness": {
        "baseColorFactor": [
          0.855605185835103,
          0.32840167399833897,
          0.002877700370988461,
          0.0
        ],
        "baseColorTexture": {
          "index": 1
        },
        "metallicFactor": 0.1
      }
    },
    {
      "doubleSided": true,
      "name": "Material.002",
      "pbrMetallicRoughness": {
        "baseColorTexture": {
          "index": 2
        },
        "metallicFactor": 0.0
      }
    },
    {
      "doubleSided": true,
      "name": "Material",
      "pbrMetallicRoughness": {
        "baseColorFactor": [
          0.33,
          0.33,
          0.33,
          1.0
        ],
        "baseColorTexture": {
          "index": 3
        },
        "metallicFactor": 0.07,
        "metallicRoughnessTexture": {
          "index": 4
        },
        "roughnessFactor": 0.91
      }
    },
    {
      "doubleSided": true,
      "name": "Material.001",
      "pbrMetallicRoughness": {
        "baseColorFactor": [
          0.4350992372992019,
          0.1404517774633062,
          0.002689558208342445,
          1.0
        ],
        "roughnessFactor": 0.17999999999999994
      }
    },
    {
      "alphaMode": "BLEND",
      "doubleSided": true,
      "name": "material_6",
      "pbrMetallicRoughness": {
        "baseColorFactor": [
          1.0,
          1.0,
          1.0,
          0.89
        ],
        "baseColorTexture": {
          "index": 5
        },
        "metallicFactor": 0.0
      }
    }
  ],
  "meshes": [
    {
      "name": "Text.002",
      "primitives": [
        {
          "attributes": {
            "NORMAL": 1,
            "POSITION": 0
          },
          "indices": 2,
          "material": 1,
          "mode": 4
        }
      ]
    },
    {
      "name": "PM",
      "primitives": [
        {
          "attributes": {
            "NORMAL": 4,
            "POSITION": 3,
            "TEXCOORD_0": 5
          },
          "indices": 6,
          "material": 6,
          "mode": 4
        }
      ]
    },
    {
      "name": "cover",
      "primitives": [
        {
          "attributes": {
            "NORMAL": 8,
            "POSITION": 7,
            "TEXCOORD_0": 9
          },
          "indices": 10,
          "material": 4,
          "mode": 4
        }
      ]
    },
    {
      "name": "cover",
      "primitives": [
        {
          "attributes": {
            "NORMAL": 12,
            "POSITION": 11,
            "TEXCOORD_0": 13
          },
          "indices": 14,
          "material": 5,
          "mode": 4
        }
      ]
    },
    {
      "name": "pages",
      "primitives": [
        {
          "attributes": {
            "NORMAL": 16,
            "POSITION": 15,
            "TEXCOORD_0": 17
          },
          "indices": 18,
          "material": 3,
          "mode": 4
        }
      ]
    },
    {
      "name": "000-Front-Cover-shabby-chic-border-q75-2560x1600",
      "primitives": [
        {
          "attributes": {
            "NORMAL": 20,
            "POSITION": 19,
            "TEXCOORD_0": 21
          },
          "indices": 22,
          "material": 2,
          "mode": 4
        }
      ]
    },
    {
      "name": "Text",
      "primitives": [
        {
          "attributes": {
            "NORMAL": 24,
            "POSITION": 23
          },
          "indices": 25,
          "material": 1,
          "mode": 4
        }
      ]
    },
    {
      "name": "Text.001",
      "primitives": [
        {
          "attributes": {
            "NORMAL": 27,
            "POSITION": 26
          },
          "indices": 28,
          "material": 1,
          "mode": 4
        }
      ]
    },
    {
      "name": "1a9",
      "primitives": [
        {
          "attributes": {
            "NORMAL": 30,
            "POSITION": 29,
            "TEXCOORD_0": 31
          },
          "indices": 32,
          "material": 0,
          "mode": 4
        }
      ]
    }
  ],
  "nodes": [
    {
      "children": [
        1
      ],
      "matrix": [
        1.0,
        0.0,
        0.0,
        0.0,
        0.0,
        2.220446049250313e-16,
        -1.0,
        0.0,
        0.0,
        1.0,
        2.220446049250313e-16,
        0.0,
        0.0,
        0.0,
        0.0,
        1.0
      ],
      "name": "Sketchfab_model"
    },
    {
      "children": [
        2,
        4,
        6,
        8,
        11,
        13,
        15,
        17,
        19,
        21
      ],
      "name": "Root"
    },
    {
      "children": [
        3
      ],
      "matrix": [
        -0.42293000000000003,
        0.4984200000000001,
        0.7567800000000001,
        0.0,
        -0.8308900000000001,
        -0.54655,
        -0.10439000000000001,
        0.0,
        0.36159,
        -0.6729500000000002,
        0.6452900000000001,
        0.0,
        4.076250000000001,
        -6.449560000000001,
        15.342740000000001,
        1.0
      ],
      "name": "Lamp"
    },
    {
      "name": "Lamp"
    },
    {
      "children": [
        5
      ],
      "matrix": [
        0.0,
        0.0,
        0.7662700000000001,
        0.0,
        -0.7662700000000001,
        -0.0,
        0.0,
        0.0,
        0.0,
        -0.7662700000000001,
        -0.0,
        0.0,
        2.6775100000000003,
        -0.11666000000000003,
        1.4011599999999997,
        1.0
      ],
      "name": "Text.002"
    },
    {
      "mesh": 0,
      "name": "Text.002"
    },
    {
      "children": [
        7
      ],
      "matrix": [
        0.0,
        0.0,
        2.35497,
        0.0,
        -1.08009,
        -0.0,
        0.0,
        0.0,
        0.0,
        -1.1303,
        -0.0,
        0.0,
        -5.1875599999999995,
        -0.19443000000000005,
        1.3817,
        1.0
      ],
      "name": "PM"
    },
    {
      "mesh": 1,
      "name": "PM"
    },
    {
      "children": [
        9,
        10
      ],
      "matrix": [
        1.0,
        0.0,
        0.0,
        0.0,
        0.0,
        1.0,
        -0.0,
        0.0,
        0.0,
        0.0,
        5.0,
        0.0,
        -0.57847,
        0.33299000000000006,
        1.38794,
        1.0
      ],
      "name": "cover"
    },
    {
      "mesh": 2,
      "name": "cover"
    },
    {
      "mesh": 3,
      "name": "cover"
    },
    {
      "children": [
        12
      ],
      "matrix": [
        5.17012,
        0.0,
        0.0,
        0.0,
        0.0,
        2.98263,
        -0.0,
        0.0,
        0.0,
        0.0,
        0.8509700000000001,
        0.0,
        -1.15588,
        4.02961,
        1.38794,
        1.0
      ],
      "name": "pages"
    },
    {
      "mesh": 4,
      "name": "pages"
    },
    {
      "children": [
        14
      ],
      "matrix": [
        5.736190000000001,
        0.0,
        0.0,
        0.0,
        0.0,
        5.55486,
        -0.0,
        0.0,
        0.0,
        0.0,
        5.736190000000001,
        0.0,
        -1.64869,
        3.74202,
        2.3791599999999997,
        1.0
      ],
      "name": "000-Front-Cover-shabby-chic-border-q75-2560x1600"
    },
    {
      "mesh": 5,
      "name": "000-Front-Cover-shabby-chic-border-q75-2560x1600"
    },
    {
      "children": [
        16
      ],
      "matrix": [
        1.0,
        0.0,
        0.0,
        0.0,
        0.0,
        1.0,
        0.0,
        0.0,
        0.0,
        0.0,
        1.0,
        0.0,
        -2.07423,
        2.92716,
        28.999129999999997,
        1.0
      ],
      "name": "Area"
    },
    {
      "name": "Area"
    },
    {
      "children": [
        18
      ],
      "matrix": [
        0.0,
        1.0,
        -0.0,
        0.0,
        -1.0,
        0.0,
        -0.0,
        0.0,
        -0.0,
        0.0,
        1.0,
        0.0,
        -2.63868,
        4.02982,
        2.4123999999999994,
        1.0
      ],
      "name": "Text"
    },
    {
      "mesh": 6,
      "name": "Text"
    },
    {
      "children": [
        20
      ],
      "matrix": [
        0.0,
        1.0,
        -0.0,
        0.0,
        -1.0,
        0.0,
        -0.0,
        0.0,
        -0.0,
        0.0,
        1.0,
        0.0,
        2.0990599999999997,
        3.95321,
        2.39722,
        1.0
      ],
      "name": "Text.001"
    },
    {
      "mesh": 7,
      "name": "Text.001"
    },
    {
      "children": [
        22
      ],
      "matrix": [
        -0.009060000000000002,
        0.0,
        0.92117,
        0.0,
        -0.92117,
        0.0,
        -0.009060000000000002,
        0.0,
        -0.0,
        -0.92121,
        -0.0,
        0.0,
        0.99334,
        -1.12496,
        1.38771,
        1.0
      ],
      "name": "1a9"
    },
    {
      "mesh": 8,
      "name": "1a9"
    }
  ],
  "samplers": [
    {
      "magFilter": 9729,
      "minFilter": 9987,
      "wrapS": 10497,
      "wrapT": 10497
    }
  ],
  "scene": 0,
  "scenes": [
    {
      "name": "Sketchfab_Scene",
      "nodes": [
        0
      ]
    }
  ],
  "textures": [
    {
      "sampler": 0,
      "source": 0
    },
    {
      "sampler": 0,
      "source": 1
    },
    {
      "sampler": 0,
      "source": 2
    },
    {
      "sampler": 0,
      "source": 3
    },
    {
      "sampler": 0,
      "source": 4
    },
    {
      "sampler": 0,
      "source": 5
    }
  ]
}
